<?xml version="1.0" encoding="UTF-8"?>
<svg viewBox="0 0 500 300" xmlns="http://www.w3.org/2000/svg">
    <!-- Background Shield -->
    <path d="M250 30 L380 80 L380 170 C380 240 320 270 250 290 C180 270 120 240 120 170 L120 80 Z" fill="#f1f5f9"
          stroke="#334155" stroke-width="8"/>

    <!-- So Text -->
    <text x="250" y="100" font-family="Arial, sans-serif" font-size="40" font-weight="bold" text-anchor="middle"
          fill="#0ea5e9">So
    </text>

    <!-- SSL Text -->
    <text x="250" y="160" font-family="Arial, sans-serif" font-size="80" font-weight="bold" text-anchor="middle"
          fill="#334155">SSL
    </text>

    <!-- 3D Lock - positioned higher on the shield -->
    <g transform="translate(335, 250) rotate(-25) scale(1.5)">
        <!-- Lock Body Shadow (for 3D effect) -->
        <rect x="-22" y="0" width="44" height="32" rx="5" ry="5" fill="#0c4a6e" opacity="0.5"/>

        <!-- Lock Body -->
        <rect x="-20" y="-2" width="40" height="30" rx="5" ry="5" fill="#0ea5e9"/>

        <!-- Lock Body Highlight (for 3D effect) -->
        <rect x="-18" y="-2" width="36" height="5" rx="2" ry="2" fill="#7dd3fc" opacity="0.5"/>

        <!-- Lock Shackle Behind Shield (for 3D effect) -->
        <path d="M-10 -2 L-10 -14 C-10 -23 10 -23 10 -14 L10 -2" fill="none" stroke="#64748b" stroke-width="6"
              stroke-linecap="round"/>

        <!-- Lock Shackle Front (for 3D effect) -->
        <path d="M-10 -2 L-10 -15 C-10 -25 10 -25 10 -15 L10 -2" fill="none" stroke="#334155" stroke-width="6"
              stroke-linecap="round"/>

        <!-- Shackle Highlights (for 3D effect) -->
        <path d="M-10 -15 C-10 -24 10 -24 10 -15" fill="none" stroke="#f1f5f9" stroke-width="1.5" stroke-linecap="round"
              opacity="0.7"/>

        <!-- Keyhole Outer -->
        <circle cx="0" cy="13" r="6" fill="#0c4a6e"/>

        <!-- Keyhole Inner -->
        <circle cx="0" cy="13" r="5" fill="#64748b"/>
        <rect x="-1.5" y="13" width="3" height="7" fill="#64748b"/>

        <!-- Keyhole Highlight (for 3D effect) -->
        <path d="M-3 10 A5 5 0 0 1 3 10" stroke="#f1f5f9" stroke-width="1" fill="none" opacity="0.7"/>
    </g>

    <!-- Security Dots -->
    <circle cx="145" cy="210" r="8" fill="#0ea5e9" opacity="0.7"/>
    <circle cx="355" cy="210" r="8" fill="#0ea5e9" opacity="0.7"/>
    <circle cx="170" cy="250" r="6" fill="#0ea5e9" opacity="0.5"/>
    <circle cx="330" cy="250" r="6" fill="#0ea5e9" opacity="0.5"/>
</svg>
